<?xml version="1.0" encoding="UTF-8"?>
<svg width="1024px" height="1024px" viewBox="0 0 1024 1024" version="1.1" xmlns="http://www.w3.org/2000/svg" xmlns:xlink="http://www.w3.org/1999/xlink">
    <!-- Generator: Sketch 46.2 (44496) - http://www.bohemiancoding.com/sketch -->
    <title>Artboard</title>
    <desc>Created with Sketch.</desc>
    <defs>
        <linearGradient x1="-60.8691406%" y1="-57.9352679%" x2="109.916992%" y2="113.872768%" id="linearGradient-1">
            <stop stop-color="#3023AE" offset="0%"></stop>
            <stop stop-color="#4A7FE8" offset="34.8750595%"></stop>
            <stop stop-color="#53A0FD" offset="47.5247532%"></stop>
            <stop stop-color="#B4EC51" offset="100%"></stop>
        </linearGradient>
    </defs>
    <g id="Page-1" stroke="none" stroke-width="1" fill="none" fill-rule="evenodd">
        <g id="Artboard">
            <g id="Group-2" transform="translate(37.000000, 90.000000)">
                <g id="Group" stroke="url(#linearGradient-1)" stroke-width="50" fill="#000000" fill-rule="nonzero">
                    <path d="M56.8955224,833.631834 L896.104478,833.631834 C927.527007,833.631834 953,811.349464 953,783.862769 L953,49.7690647 C953,22.2823693 927.527007,0 896.104478,0 L56.8955224,0 C25.472993,0 0,22.2823693 0,49.7690647 L0,783.862769 C0,811.349464 25.472993,833.631834 56.8955224,833.631834 Z" id="Shape"></path>
                </g>
                <rect id="Rectangle" fill="#FFFFFF" x="340" y="717" width="259" height="25" rx="8"></rect>
                <path d="M113.247741,436.713512 C103.333159,427.408984 103.625708,412.909514 113.909467,403.916628 C124.193227,394.923742 140.774007,394.667916 151.414142,403.337965 L320.102434,550.772869 C330.632522,559.992629 330.632522,574.928655 320.102434,584.148415 L151.414142,731.662035 C140.774007,740.332084 124.193227,740.076258 113.909467,731.083372 C103.625708,722.090486 103.333159,707.591016 113.247741,698.286488 L262.852833,567.460642 L113.247741,436.713512 Z" id="Path" stroke="#000000" fill="#FFFFFF"></path>
            </g>
        </g>
    </g>
</svg>