<?xml version="1.0" encoding="UTF-8"?>
<svg width="400px" height="400px" viewBox="0 0 400 400" version="1.1" xmlns="http://www.w3.org/2000/svg" xmlns:xlink="http://www.w3.org/1999/xlink">
    <!-- Generator: Sketch 42 (36781) - http://www.bohemiancoding.com/sketch -->
    <title>Artboard</title>
    <desc>Created with Sketch.</desc>
    <defs>
        <filter x="-50%" y="-50%" width="200%" height="200%" filterUnits="objectBoundingBox" id="filter-1">
            <feOffset dx="0" dy="2" in="SourceAlpha" result="shadowOffsetOuter1"></feOffset>
            <feGaussianBlur stdDeviation="2" in="shadowOffsetOuter1" result="shadowBlurOuter1"></feGaussianBlur>
            <feColorMatrix values="0 0 0 0 0   0 0 0 0 0   0 0 0 0 0  0 0 0 0.5 0" type="matrix" in="shadowBlurOuter1" result="shadowMatrixOuter1"></feColorMatrix>
            <feMerge>
                <feMergeNode in="shadowMatrixOuter1"></feMergeNode>
                <feMergeNode in="SourceGraphic"></feMergeNode>
            </feMerge>
        </filter>
        <path d="M16.2711397,0.4319112 L324.909364,0.4319112 C333.592128,0.4319112 340.341275,7.1810599 340.341275,15.8638224 L340.341275,231.910579 C340.341275,240.593344 333.592128,247.34249 324.909364,247.34249 L16.2711397,247.34249 C7.5883765,247.34249 0.8392286,240.593344 0.8392286,231.910579 L0.8392286,15.8638224 C0.8392286,7.1810599 7.5883765,0.4319112 16.2711397,0.4319112 Z M31.7030509,15.8638224 C27.4416463,15.8638224 23.9870953,19.3183734 23.9870953,23.579778 C23.9870953,27.8411826 27.4416463,31.2957336 31.7030509,31.2957336 C35.9644555,31.2957336 39.4190065,27.8411826 39.4190065,23.579778 C39.4190065,19.3183734 35.9644555,15.8638224 31.7030509,15.8638224 Z M62.5668733,15.8638224 C58.3054687,15.8638224 54.8509177,19.3183734 54.8509177,23.579778 C54.8509177,27.8411826 58.3054687,31.2957336 62.5668733,31.2957336 C66.8282779,31.2957336 70.2828289,27.8411826 70.2828289,23.579778 C70.2828289,19.3183734 66.8282779,15.8638224 62.5668733,15.8638224 Z M93.430696,15.8638224 C89.169291,15.8638224 85.71474,19.3183734 85.71474,23.579778 C85.71474,27.8411826 89.169291,31.2957336 93.430696,31.2957336 C97.6921,31.2957336 101.146651,27.8411826 101.146651,23.579778 C101.146651,19.3183734 97.6921,15.8638224 93.430696,15.8638224 Z M124.195805,77.5921641 C123.55972,77.599583 122.926994,77.6856336 122.312031,77.848357 C119.643886,78.5572322 117.557771,80.6375976 116.841535,83.3037768 C116.127326,85.969878 116.891618,88.814422 118.845878,90.763539 L151.970236,123.887898 L118.845878,157.012256 C116.897004,158.958266 116.133129,161.795508 116.841535,164.456942 C117.55041,167.125087 119.630775,169.211202 122.296954,169.927438 C124.963055,170.641647 127.807599,169.877355 129.756717,167.923095 L168.336495,129.343317 C171.348558,126.330007 171.348558,121.445789 168.336495,118.432478 L129.756717,79.8526999 C128.284188,78.3794767 126.278579,77.5641876 124.195805,77.5921641 Z M186.022163,154.751023 C181.747523,154.751023 178.306207,158.192339 178.306207,162.466979 C178.306207,166.741618 181.747523,170.182934 186.022163,170.182934 L247.749808,170.182934 C252.024447,170.182934 255.465763,166.741618 255.465763,162.466979 C255.465763,158.192339 252.024447,154.751023 247.749808,154.751023 L186.022163,154.751023 Z" id="path-2"></path>
        <filter x="-50%" y="-50%" width="200%" height="200%" filterUnits="objectBoundingBox" id="filter-3">
            <feMorphology radius="2" operator="dilate" in="SourceAlpha" result="shadowSpreadOuter1"></feMorphology>
            <feOffset dx="0" dy="5" in="shadowSpreadOuter1" result="shadowOffsetOuter1"></feOffset>
            <feGaussianBlur stdDeviation="10" in="shadowOffsetOuter1" result="shadowBlurOuter1"></feGaussianBlur>
            <feComposite in="shadowBlurOuter1" in2="SourceAlpha" operator="out" result="shadowBlurOuter1"></feComposite>
            <feColorMatrix values="0 0 0 0 0   0 0 0 0 0   0 0 0 0 0  0 0 0 0.5 0" type="matrix" in="shadowBlurOuter1"></feColorMatrix>
        </filter>
    </defs>
    <g id="Page-1" stroke="none" stroke-width="1" fill="none" fill-rule="evenodd">
        <g id="Artboard">
            <g id="speedterm" transform="translate(30.000000, 76.000000)">
                <g id="Page-1" filter="url(#filter-1)">
                    <g id="Group">
                        <g id="Shape">
                            <g id="path-1-link" fill-rule="nonzero" fill="#000000">
                                <path d="M16.2711397,0.4319112 L324.909364,0.4319112 C333.592128,0.4319112 340.341275,7.1810599 340.341275,15.8638224 L340.341275,231.910579 C340.341275,240.593344 333.592128,247.34249 324.909364,247.34249 L16.2711397,247.34249 C7.5883765,247.34249 0.8392286,240.593344 0.8392286,231.910579 L0.8392286,15.8638224 C0.8392286,7.1810599 7.5883765,0.4319112 16.2711397,0.4319112 Z M31.7030509,15.8638224 C27.4416463,15.8638224 23.9870953,19.3183734 23.9870953,23.579778 C23.9870953,27.8411826 27.4416463,31.2957336 31.7030509,31.2957336 C35.9644555,31.2957336 39.4190065,27.8411826 39.4190065,23.579778 C39.4190065,19.3183734 35.9644555,15.8638224 31.7030509,15.8638224 Z M62.5668733,15.8638224 C58.3054687,15.8638224 54.8509177,19.3183734 54.8509177,23.579778 C54.8509177,27.8411826 58.3054687,31.2957336 62.5668733,31.2957336 C66.8282779,31.2957336 70.2828289,27.8411826 70.2828289,23.579778 C70.2828289,19.3183734 66.8282779,15.8638224 62.5668733,15.8638224 Z M93.430696,15.8638224 C89.169291,15.8638224 85.71474,19.3183734 85.71474,23.579778 C85.71474,27.8411826 89.169291,31.2957336 93.430696,31.2957336 C97.6921,31.2957336 101.146651,27.8411826 101.146651,23.579778 C101.146651,19.3183734 97.6921,15.8638224 93.430696,15.8638224 Z M124.195805,77.5921641 C123.55972,77.599583 122.926994,77.6856336 122.312031,77.848357 C119.643886,78.5572322 117.557771,80.6375976 116.841535,83.3037768 C116.127326,85.969878 116.891618,88.814422 118.845878,90.763539 L151.970236,123.887898 L118.845878,157.012256 C116.897004,158.958266 116.133129,161.795508 116.841535,164.456942 C117.55041,167.125087 119.630775,169.211202 122.296954,169.927438 C124.963055,170.641647 127.807599,169.877355 129.756717,167.923095 L168.336495,129.343317 C171.348558,126.330007 171.348558,121.445789 168.336495,118.432478 L129.756717,79.8526999 C128.284188,78.3794767 126.278579,77.5641876 124.195805,77.5921641 Z M186.022163,154.751023 C181.747523,154.751023 178.306207,158.192339 178.306207,162.466979 C178.306207,166.741618 181.747523,170.182934 186.022163,170.182934 L247.749808,170.182934 C252.024447,170.182934 255.465763,166.741618 255.465763,162.466979 C255.465763,158.192339 252.024447,154.751023 247.749808,154.751023 L186.022163,154.751023 Z" id="path-1"></path>
                            </g>
                            <g id="path-1-link">
                                <g id="path-1">
                                    <use fill="black" fill-opacity="1" filter="url(#filter-3)" xlink:href="#path-2"></use>
                                    <use stroke="#000000" stroke-width="4" fill="#FFFFFF" fill-rule="evenodd" xlink:href="#path-2"></use>
                                </g>
                            </g>
                        </g>
                    </g>
                </g>
            </g>
        </g>
    </g>
</svg>